<?xml version="1.0" standalone="no"?>
<!DOCTYPE svg PUBLIC "-//W3C//DTD SVG 20010904//EN"
 "http://www.w3.org/TR/2001/REC-SVG-20010904/DTD/svg10.dtd">
<svg version="1.0" xmlns="http://www.w3.org/2000/svg"
 width="512.000000pt" height="512.000000pt" viewBox="0 0 512.000000 512.000000"
 preserveAspectRatio="xMidYMid meet">
<metadata>
Created by potrace 1.14, written by Peter Selinger 2001-2017
</metadata>
<g transform="translate(0.000000,512.000000) scale(0.100000,-0.100000)"
fill="#000000" stroke="none">
<path d="M2512 4471 l-263 -66 -3 -160 c-4 -174 -13 -220 -66 -333 -45 -96
-51 -101 -108 -90 -72 14 -249 11 -328 -6 -88 -19 -190 -57 -269 -100 -56 -30
-69 -33 -180 -39 -196 -10 -351 -60 -512 -167 -504 -332 -761 -1036 -622
-1708 133 -650 620 -1131 1147 -1133 94 0 99 -1 182 -43 235 -120 459 -142
702 -69 l87 26 53 -21 c163 -64 314 -63 465 4 l56 24 71 -26 c109 -39 197 -54
320 -54 149 0 271 30 421 104 l110 54 120 5 c257 11 457 107 676 326 326 327
486 781 457 1296 -37 648 -445 1221 -966 1356 -44 11 -128 22 -197 25 -114 6
-124 8 -195 44 -186 93 -388 130 -563 101 l-48 -8 -43 66 c-100 152 -184 370
-214 556 -9 58 -19 105 -22 104 -3 0 -123 -31 -268 -68z m123 -348 c21 -65 63
-165 92 -223 29 -58 53 -106 53 -107 0 -1 -19 5 -42 14 -53 19 -249 29 -299
15 l-37 -10 25 62 c31 75 63 223 63 292 0 50 1 51 38 61 67 19 64 21 107 -104z
m-211 -580 c-47 -71 -114 -197 -156 -293 -247 -560 -269 -1400 -52 -2024 43
-126 129 -304 183 -385 23 -34 39 -61 36 -61 -3 0 -29 12 -58 26 -74 37 -210
180 -270 282 -122 208 -201 472 -237 792 -14 122 -14 467 0 590 59 525 251
926 512 1071 29 16 55 29 57 29 2 0 -5 -12 -15 -27z m-913 -154 c-235 -355
-354 -792 -345 -1274 8 -452 139 -880 366 -1198 56 -79 51 -78 -59 5 -429 326
-621 1098 -443 1773 69 262 189 483 349 644 64 65 190 164 198 157 2 -2 -28
-49 -66 -107z m-451 -26 c-338 -286 -521 -706 -520 -1198 1 -270 55 -505 171
-740 89 -180 200 -317 369 -457 l45 -37 -59 19 c-350 117 -612 489 -687 975
-18 118 -16 400 5 515 39 220 114 422 211 571 67 102 222 256 313 309 60 35
181 89 202 89 3 0 -20 -21 -50 -46z"/>
</g>
</svg>
